<?xml version="1.0" encoding="UTF-8" standalone="no"?>
<!-- Created with Inkscape (http://www.inkscape.org/) -->

<svg
   xmlns:dc="http://purl.org/dc/elements/1.1/"
   xmlns:cc="http://creativecommons.org/ns#"
   xmlns:rdf="http://www.w3.org/1999/02/22-rdf-syntax-ns#"
   xmlns:svg="http://www.w3.org/2000/svg"
   xmlns="http://www.w3.org/2000/svg"
   xmlns:sodipodi="http://sodipodi.sourceforge.net/DTD/sodipodi-0.dtd"
   xmlns:inkscape="http://www.inkscape.org/namespaces/inkscape"
   width="210mm"
   height="297mm"
   viewBox="0 0 744.09448819 1052.3622047"
   id="svg4157"
   version="1.1"
   inkscape:version="0.91 r13725"
   sodipodi:docname="clubs.svg">
  <defs
     id="defs4159">
    <inkscape:perspective
       sodipodi:type="inkscape:persp3d"
       inkscape:vp_x="0 : 526.1811 : 1"
       inkscape:vp_y="0 : 1000 : 0"
       inkscape:vp_z="744.09449 : 526.1811 : 1"
       inkscape:persp3d-origin="372.04724 : 350.7874 : 1"
       id="perspective4783" />
  </defs>
  <sodipodi:namedview
     id="base"
     pagecolor="#ffffff"
     bordercolor="#666666"
     borderopacity="1.0"
     inkscape:pageopacity="0.0"
     inkscape:pageshadow="2"
     inkscape:zoom="0.25163531"
     inkscape:cx="818.8332"
     inkscape:cy="499.8525"
     inkscape:document-units="px"
     inkscape:current-layer="layer1"
     showgrid="false"
     inkscape:window-width="1199"
     inkscape:window-height="915"
     inkscape:window-x="545"
     inkscape:window-y="13"
     inkscape:window-maximized="0" />
  <metadata
     id="metadata4162">
    <rdf:RDF>
      <cc:Work
         rdf:about="">
        <dc:format>image/svg+xml</dc:format>
        <dc:type
           rdf:resource="http://purl.org/dc/dcmitype/StillImage" />
        <dc:title></dc:title>
      </cc:Work>
    </rdf:RDF>
  </metadata>
  <g
     inkscape:label="Layer 1"
     inkscape:groupmode="layer"
     id="layer1">
    <path
       style="fill:#000000;fill-opacity:1;stroke:#ff0000;stroke-width:7.79891968;stroke-miterlimit:4;stroke-dasharray:none;stroke-opacity:1"
       d="M 376.55078 119.0293 A 187.41658 187.41658 0 0 0 189.13281 306.44531 A 187.41658 187.41658 0 0 0 269.38281 460.10547 A 193.13044 193.13044 0 0 0 198.70312 446.55273 A 193.13044 193.13044 0 0 0 5.5722656 639.68164 A 193.13044 193.13044 0 0 0 198.70312 832.8125 A 193.13044 193.13044 0 0 0 358.875 746.95703 L 359.7832 747.2207 L 216.77344 994.91992 L 544.66406 994.91992 L 404.16016 751.56055 A 191.74102 191.74102 0 0 0 556.58789 827.53125 A 191.74102 191.74102 0 0 0 748.33008 635.78906 A 191.74102 191.74102 0 0 0 556.58789 444.04883 A 191.74102 191.74102 0 0 0 487.46094 457.25 A 187.41658 187.41658 0 0 0 563.9668 306.44531 A 187.41658 187.41658 0 0 0 376.55078 119.0293 z "
       id="path5623" />
  </g>
</svg>
