<?xml version="1.0" encoding="UTF-8" standalone="no"?>
<!-- Created with Inkscape (http://www.inkscape.org/) -->

<svg
   xmlns:dc="http://purl.org/dc/elements/1.1/"
   xmlns:cc="http://creativecommons.org/ns#"
   xmlns:rdf="http://www.w3.org/1999/02/22-rdf-syntax-ns#"
   xmlns:svg="http://www.w3.org/2000/svg"
   xmlns="http://www.w3.org/2000/svg"
   xmlns:sodipodi="http://sodipodi.sourceforge.net/DTD/sodipodi-0.dtd"
   xmlns:inkscape="http://www.inkscape.org/namespaces/inkscape"
   width="210mm"
   height="297mm"
   viewBox="0 0 744.09448819 1052.3622047"
   id="svg4157"
   version="1.1"
   inkscape:version="0.91 r13725"
   sodipodi:docname="spade.svg">
  <defs
     id="defs4159">
    <inkscape:perspective
       sodipodi:type="inkscape:persp3d"
       inkscape:vp_x="0 : 526.1811 : 1"
       inkscape:vp_y="0 : 1000 : 0"
       inkscape:vp_z="744.09449 : 526.1811 : 1"
       inkscape:persp3d-origin="372.04724 : 350.7874 : 1"
       id="perspective4783" />
  </defs>
  <sodipodi:namedview
     id="base"
     pagecolor="#ffffff"
     bordercolor="#666666"
     borderopacity="1.0"
     inkscape:pageopacity="0.0"
     inkscape:pageshadow="2"
     inkscape:zoom="0.35586607"
     inkscape:cx="471.50254"
     inkscape:cy="481.22694"
     inkscape:document-units="px"
     inkscape:current-layer="layer1"
     showgrid="false"
     inkscape:window-width="1199"
     inkscape:window-height="915"
     inkscape:window-x="545"
     inkscape:window-y="13"
     inkscape:window-maximized="0" />
  <metadata
     id="metadata4162">
    <rdf:RDF>
      <cc:Work
         rdf:about="">
        <dc:format>image/svg+xml</dc:format>
        <dc:type
           rdf:resource="http://purl.org/dc/dcmitype/StillImage" />
        <dc:title></dc:title>
      </cc:Work>
    </rdf:RDF>
  </metadata>
  <g
     inkscape:label="Layer 1"
     inkscape:groupmode="layer"
     id="layer1">
    <path
       style="fill:#000000;fill-opacity:1;stroke:#ff0000;stroke-width:9.94634151;stroke-miterlimit:4;stroke-dasharray:none;stroke-opacity:1"
       d="M 366.60742,39.632812 56.013672,511.83398 c -18.83916,30.01298 -34.867859,58.44418 -45.605469,89.89844 l -5.6601561,8.93164 2.6992187,-0.0117 c -5.70595,19.29245 -8.6226162,39.31175 -8.6601562,59.44141 -8e-5,115.7863 93.2233716,209.64986 208.2207006,209.65039 39.45863,-0.061 77.50604,-11.39677 110.10938,-31.93164 l -107.80664,181.78128 332.22851,3.8867 -102.04297,-181.6172 c 29.60147,15.9076 63.02314,24.5702 97.51172,24.59961 113.9744,-3e-4 206.36883,-92.39475 206.36914,-206.36914 -0.0824,-21.3013 -3.46229,-42.46143 -10.01953,-62.72852 l 1.46485,-0.006 -3.00586,-4.63477 C 720.86836,571.11097 716.30795,548.59401 696.875,519.74414 L 366.60742,39.632812 Z"
       id="path4709"
       inkscape:connector-curvature="0" />
  </g>
</svg>
