<?xml version="1.0" encoding="UTF-8" standalone="no"?>
<!-- Created with Inkscape (http://www.inkscape.org/) -->

<svg
   xmlns:dc="http://purl.org/dc/elements/1.1/"
   xmlns:cc="http://creativecommons.org/ns#"
   xmlns:rdf="http://www.w3.org/1999/02/22-rdf-syntax-ns#"
   xmlns:svg="http://www.w3.org/2000/svg"
   xmlns="http://www.w3.org/2000/svg"
   xmlns:sodipodi="http://sodipodi.sourceforge.net/DTD/sodipodi-0.dtd"
   xmlns:inkscape="http://www.inkscape.org/namespaces/inkscape"
   width="500mm"
   height="500mm"
   viewBox="0 0 1771.6535 1771.6535"
   id="svg2"
   version="1.1"
   inkscape:version="0.91 r13725"
   sodipodi:docname="spiral.svg">
  <defs
     id="defs4" />
  <sodipodi:namedview
     id="base"
     pagecolor="#ffffff"
     bordercolor="#666666"
     borderopacity="1.0"
     inkscape:pageopacity="0.0"
     inkscape:pageshadow="2"
     inkscape:zoom="0.31450853"
     inkscape:cx="987.19851"
     inkscape:cy="899.95707"
     inkscape:document-units="px"
     inkscape:current-layer="layer1"
     showgrid="false"
     inkscape:window-width="1467"
     inkscape:window-height="954"
     inkscape:window-x="400"
     inkscape:window-y="0"
     inkscape:window-maximized="0" />
  <metadata
     id="metadata7">
    <rdf:RDF>
      <cc:Work
         rdf:about="">
        <dc:format>image/svg+xml</dc:format>
        <dc:type
           rdf:resource="http://purl.org/dc/dcmitype/StillImage" />
        <dc:title></dc:title>
      </cc:Work>
    </rdf:RDF>
  </metadata>
  <g
     inkscape:label="Layer 1"
     inkscape:groupmode="layer"
     id="layer1"
     transform="translate(0,719.29136)">
    <path
       style="fill:#000000;fill-opacity:1;fill-rule:evenodd;stroke:#000000;stroke-width:0.93948925px;stroke-linecap:butt;stroke-linejoin:miter;stroke-opacity:1"
       d="m 817.06945,260.24581 c -26.52396,-23.46548 -22.35315,-65.20239 1.24798,-89.03035 32.699,-33.01328 87.11313,-26.75828 117.69683,5.71446 39.7471,42.20233 31.2749,109.88559 -10.4598,147.38097 -51.95765,46.67977 -133.37142,35.88986 -177.92533,-15.42499 -53.78107,-61.94221 -40.59221,-157.46946 20.57224,-209.217907 72.13493,-61.03006 182.10589,-45.3739 241.17483,25.875007 68.4109,82.51763 50.2282,207.22431 -31.31404,273.7298 C 884.98735,475.18435 745.2825,454.42254 671.23175,362.39911 587.70984,258.60581 611.09797,103.66361 713.77447,21.966168 828.43624,-69.267705 998.83596,-43.210202 1088.2751,70.277433 1187.316,195.94785 1158.5494,382.00915 1034.104,479.28001 897.29311,586.21607 695.37955,554.70391 590.19235,419.16384 475.27708,271.08854 509.56918,53.143763 656.33238,-60.040222 815.78967,-183.01391 1049.9346,-145.90971 1171.1918,12.197757 1302.2992,183.14857 1262.3526,433.6533 1092.7865,563.05692 910.23556,702.36941 643.2191,659.55192 505.59933,478.41777 358.01323,284.16601 403.72887,0.492971 596.53452,-145.40982 802.58451,-301.33506 1103.0525,-252.69533 1257.3026,-48.119172 1421.6298,169.82212 1370.0413,487.21737 1153.5997,649.87638 923.67756,822.66623 589.22774,768.10511 418.10026,539.70725 236.78966,297.71837 294.34602,-53.908396 534.78769,-233.5618 788.9264,-423.44937 1157.8481,-362.87593 1346.0829,-110.30616 1544.6017,156.06255 1480.9902,542.39275 1216.2111,739.26262 937.53486,946.46536 533.68601,879.79532 328.12905,602.72835 112.19151,311.66961 181.93965,-109.80413 471.3704,-324.09861 c 303.51402,-224.72173 742.7158,-151.87655 965.797,149.99158 233.5538,316.03987 157.5933,773.06984 -156.7836,1004.98489 C 951.74936,1073.3106 476.79409,994.21666 235.99867,667.26186 -15.3582,325.96651 66.886173,-167.00857 406.48638,-416.72939 760.5077,-677.05464 1271.5945,-591.6429 1530.2847,-239.33191 1799.6215,127.47859 1711.0259,656.76652 1345.9404,924.46884 966.27906,1202.8589 418.70266,1111.0638 141.9464,733.1416 -145.5381,340.56947 -50.527836,-225.38042 340.29164,-511.23137 749.37296,-810.43933 1327.6513,-713.15308 1625.2254,-305.83398 1933.6875,116.3884 1833.1898,713.00964 1412.7425,1019.8378 977.32246,1337.5924 362.27961,1233.8694 46.158903,800.23678 -280.92614,351.56416 -173.96337,-281.97709 272.90992,-607.42795 734.88939,-943.88042 1387.0043,-833.66448 1721.8221,-373.49594 c 158.2506,217.49717 227.8315,492.50698 193.4242,759.15842 l 68.9472,158.00589 c 74.6242,-284.7561 37.493,-593.119408 -103.9637,-851.41852 C 1580.9437,-854.24516 888.19591,-1065.0548 339.50591,-764.2467 -191.24255,-473.27474 -395.9241,199.75814 -103.42892,732.68894 179.26141,1247.7552 832.65906,1446.3338 1349.8946,1162.1188 1849.3443,887.6772 2041.8462,253.83329 1765.8781,-247.77214 1499.6511,-731.67234 885.27768,-918.12369 399.23549,-650.36872 -69.183989,-392.32185 -249.612,202.66619 9.9648027,673.21334 259.86686,1126.2225 835.55669,1300.6549 1290.6788,1049.2207 1724.5424,809.53073 1894.7105,247.14272 1653.4868,-188.82232 1421.7984,-607.55425 878.73065,-771.72178 457.9129,-538.49679 54.237273,-314.77229 -103.9599,209.07009 121.30439,614.81517 337.10355,1003.5116 841.818,1155.7697 1232.5671,938.42716 1606.3639,730.51385 1752.7147,244.82712 1543.254,-131.00463 1343.1861,-489.98347 876.42393,-630.45982 515.42846,-428.83999 171.18345,-236.57548 36.547533,211.36785 230.36879,557.61034 414.87266,887.20819 844.10668,1016.0389 1175.682,829.97256 1490.7224,653.18515 1613.7838,242.54767 1435.4279,-74.44924 1266.3115,-375.02446 874.15384,-492.35401 571.64383,-321.66204 285.43793,-160.16971 173.80143,213.62854 336.87716,501.74612 490.79392,773.68196 846.35786,879.66562 1120.1811,724.15666 1377.95,577.76537 1478.3226,240.3061 1330.3292,-19.324432 1191.4115,-263.03326 871.92186,-357.83828 626.37846,-217.30725 396.61794,-85.809224 307.3351,215.85084 440.45902,447.41692 564.59323,663.34564 848.57049,747.15377 1066.2739,621.37935 1268.4929,504.55081 1346.8761,238.10295 1228.3909,34.142653 1118.8078,-154.49434 869.72807,-227.50494 679.38543,-116.24629 504.1956,-13.844731 436.50239,218.03552 540.60068,394.8921 635.88659,556.77699 850.74655,619.21129 1014.2559,522.20378 1162.9866,433.96411 1220.2241,235.9349 1130.2339,85.626573 1048.9675,-50.11042 867.56704,-102.21776 730.30419,-19.166704 607.38908,55.203253 560.34046,220.19097 636.53558,344.57379 704.09039,454.85199 852.89847,496.9194 964.57836,427.49085 1062.4203,366.66503 1099.5914,233.7835 1036.8326,134.61603 982.64426,48.990953 865.41145,16.622713 778.55018,72.817123 704.89895,120.46533 677.22835,222.35797 726.97517,297.13774 c 41.2118,61.94992 128.11343,85.04331 191.05839,41.61281 50.5604,-34.88545 69.2183,-107.20065 31.9529,-158.58332 -28.6742,-39.53665 -86.88981,-53.93266 -127.01162,-22.65184 -28.95869,22.5775 -39.31999,67.31792 -13.79584,96.50603 16.57659,18.95616 48.7469,25.61063 68.41398,4.45904 -13.37965,19.2831 -43.29759,17.00496 -60.52353,1.76535 z"
       id="path4136-9"
       inkscape:connector-curvature="0"
       sodipodi:nodetypes="sssssssssssssssssssssssssssssssssssssssccssssssssssssssssssssssssssssssssssssssscs" />
  </g>
</svg>
